<svg id="visual" viewBox="0 0 900 600" width="900" height="600" xmlns="http://www.w3.org/2000/svg" xmlns:xlink="http://www.w3.org/1999/xlink" version="1.1"><rect x="0" y="0" width="900" height="600" fill="#001220"></rect><path d="M0 432L21.5 418.8C43 405.7 86 379.3 128.8 368.5C171.7 357.7 214.3 362.3 257.2 375C300 387.7 343 408.3 385.8 421.2C428.7 434 471.3 439 514.2 434.5C557 430 600 416 642.8 413C685.7 410 728.3 418 771.2 415.8C814 413.7 857 401.3 878.5 395.2L900 389L900 601L878.5 601C857 601 814 601 771.2 601C728.3 601 685.7 601 642.8 601C600 601 557 601 514.2 601C471.3 601 428.7 601 385.8 601C343 601 300 601 257.2 601C214.3 601 171.7 601 128.8 601C86 601 43 601 21.5 601L0 601Z" fill="#007eff"></path><path d="M0 462L21.5 450.5C43 439 86 416 128.8 409C171.7 402 214.3 411 257.2 416.5C300 422 343 424 385.8 419.7C428.7 415.3 471.3 404.7 514.2 410.2C557 415.7 600 437.3 642.8 443.8C685.7 450.3 728.3 441.7 771.2 444.3C814 447 857 461 878.5 468L900 475L900 601L878.5 601C857 601 814 601 771.2 601C728.3 601 685.7 601 642.8 601C600 601 557 601 514.2 601C471.3 601 428.7 601 385.8 601C343 601 300 601 257.2 601C214.3 601 171.7 601 128.8 601C86 601 43 601 21.5 601L0 601Z" fill="#0062c3"></path><path d="M0 445L21.5 446.3C43 447.7 86 450.3 128.8 458.7C171.7 467 214.3 481 257.2 480.7C300 480.3 343 465.7 385.8 456.8C428.7 448 471.3 445 514.2 454.2C557 463.3 600 484.7 642.8 486.8C685.7 489 728.3 472 771.2 471.8C814 471.7 857 488.3 878.5 496.7L900 505L900 601L878.5 601C857 601 814 601 771.2 601C728.3 601 685.7 601 642.8 601C600 601 557 601 514.2 601C471.3 601 428.7 601 385.8 601C343 601 300 601 257.2 601C214.3 601 171.7 601 128.8 601C86 601 43 601 21.5 601L0 601Z" fill="#004789"></path><path d="M0 539L21.5 535C43 531 86 523 128.8 519C171.7 515 214.3 515 257.2 518.2C300 521.3 343 527.7 385.8 531.7C428.7 535.7 471.3 537.3 514.2 538.2C557 539 600 539 642.8 539.2C685.7 539.3 728.3 539.7 771.2 533.2C814 526.7 857 513.3 878.5 506.7L900 500L900 601L878.5 601C857 601 814 601 771.2 601C728.3 601 685.7 601 642.8 601C600 601 557 601 514.2 601C471.3 601 428.7 601 385.8 601C343 601 300 601 257.2 601C214.3 601 171.7 601 128.8 601C86 601 43 601 21.5 601L0 601Z" fill="#002c53"></path><path d="M0 543L21.5 548C43 553 86 563 128.8 560.8C171.7 558.7 214.3 544.3 257.2 538.2C300 532 343 534 385.8 533.3C428.7 532.7 471.3 529.3 514.2 531.7C557 534 600 542 642.8 543C685.7 544 728.3 538 771.2 536C814 534 857 536 878.5 537L900 538L900 601L878.5 601C857 601 814 601 771.2 601C728.3 601 685.7 601 642.8 601C600 601 557 601 514.2 601C471.3 601 428.7 601 385.8 601C343 601 300 601 257.2 601C214.3 601 171.7 601 128.8 601C86 601 43 601 21.5 601L0 601Z" fill="#011122"></path></svg>