<svg id="visual" viewBox="0 0 900 600" width="900" height="600" xmlns="http://www.w3.org/2000/svg" xmlns:xlink="http://www.w3.org/1999/xlink" version="1.1"><rect x="0" y="0" width="900" height="600" fill="#001220"></rect><defs><linearGradient id="grad1_0" x1="33.3%" y1="0%" x2="100%" y2="100%"><stop offset="20%" stop-color="#009dff" stop-opacity="1"></stop><stop offset="80%" stop-color="#009dff" stop-opacity="1"></stop></linearGradient></defs><defs><linearGradient id="grad1_1" x1="33.3%" y1="0%" x2="100%" y2="100%"><stop offset="20%" stop-color="#009dff" stop-opacity="1"></stop><stop offset="80%" stop-color="#006bad" stop-opacity="1"></stop></linearGradient></defs><defs><linearGradient id="grad1_2" x1="33.3%" y1="0%" x2="100%" y2="100%"><stop offset="20%" stop-color="#003d62" stop-opacity="1"></stop><stop offset="80%" stop-color="#006bad" stop-opacity="1"></stop></linearGradient></defs><defs><linearGradient id="grad1_3" x1="33.3%" y1="0%" x2="100%" y2="100%"><stop offset="20%" stop-color="#003d62" stop-opacity="1"></stop><stop offset="80%" stop-color="#001220" stop-opacity="1"></stop></linearGradient></defs><defs><linearGradient id="grad2_0" x1="0%" y1="0%" x2="66.7%" y2="100%"><stop offset="20%" stop-color="#009dff" stop-opacity="1"></stop><stop offset="80%" stop-color="#009dff" stop-opacity="1"></stop></linearGradient></defs><defs><linearGradient id="grad2_1" x1="0%" y1="0%" x2="66.7%" y2="100%"><stop offset="20%" stop-color="#006bad" stop-opacity="1"></stop><stop offset="80%" stop-color="#009dff" stop-opacity="1"></stop></linearGradient></defs><defs><linearGradient id="grad2_2" x1="0%" y1="0%" x2="66.7%" y2="100%"><stop offset="20%" stop-color="#006bad" stop-opacity="1"></stop><stop offset="80%" stop-color="#003d62" stop-opacity="1"></stop></linearGradient></defs><defs><linearGradient id="grad2_3" x1="0%" y1="0%" x2="66.7%" y2="100%"><stop offset="20%" stop-color="#001220" stop-opacity="1"></stop><stop offset="80%" stop-color="#003d62" stop-opacity="1"></stop></linearGradient></defs><g transform="translate(900, 0)"><path d="M0 486.7C-68.1 485.8 -136.3 484.9 -186.3 449.7C-236.2 414.5 -268.1 344.9 -289.2 289.2C-310.4 233.5 -320.9 191.7 -352 145.8C-383.1 99.9 -434.9 50 -486.7 0L0 0Z" fill="#02273f"></path><path d="M0 365.1C-51.1 364.4 -102.2 363.7 -139.7 337.3C-177.2 310.8 -201 258.7 -216.9 216.9C-232.8 175.1 -240.6 143.8 -264 109.4C-287.4 74.9 -326.2 37.5 -365.1 0L0 0Z" fill="#005386"></path><path d="M0 243.4C-34.1 242.9 -68.1 242.5 -93.1 224.8C-118.1 207.2 -134 172.4 -144.6 144.6C-155.2 116.8 -160.4 95.8 -176 72.9C-191.6 50 -217.5 25 -243.4 0L0 0Z" fill="#0084d5"></path><path d="M0 121.7C-17 121.5 -34.1 121.2 -46.6 112.4C-59.1 103.6 -67 86.2 -72.3 72.3C-77.6 58.4 -80.2 47.9 -88 36.5C-95.8 25 -108.7 12.5 -121.7 0L0 0Z" fill="#009dff"></path></g><g transform="translate(0, 600)"><path d="M0 -486.7C72.5 -490.9 145 -495 186.3 -449.7C227.6 -404.4 237.7 -309.5 250.3 -250.3C262.9 -191.1 278 -167.4 317.8 -131.6C357.6 -95.9 422.2 -47.9 486.7 0L0 0Z" fill="#02273f"></path><path d="M0 -365.1C54.4 -368.2 108.7 -371.3 139.7 -337.3C170.7 -303.3 178.3 -232.2 187.7 -187.7C197.2 -143.3 208.5 -125.6 238.4 -98.7C268.2 -71.9 316.6 -35.9 365.1 0L0 0Z" fill="#005386"></path><path d="M0 -243.4C36.2 -245.4 72.5 -247.5 93.1 -224.8C113.8 -202.2 118.9 -154.8 125.2 -125.2C131.5 -95.5 139 -83.7 158.9 -65.8C178.8 -47.9 211.1 -24 243.4 0L0 0Z" fill="#0084d5"></path><path d="M0 -121.7C18.1 -122.7 36.2 -123.8 46.6 -112.4C56.9 -101.1 59.4 -77.4 62.6 -62.6C65.7 -47.8 69.5 -41.9 79.5 -32.9C89.4 -24 105.5 -12 121.7 0L0 0Z" fill="#009dff"></path></g></svg>