<svg id="visual" viewBox="0 0 900 600" width="900" height="600" xmlns="http://www.w3.org/2000/svg" xmlns:xlink="http://www.w3.org/1999/xlink" version="1.1"><g stroke-width="1" stroke-linejoin="bevel"><path d="M411 291L493 301L481 181Z" fill="#277297" stroke="#277297"></path><path d="M481 181L360 178L411 291Z" fill="#277297" stroke="#277297"></path><path d="M632 239L533 128L481 181Z" fill="#0c2435" stroke="#0c2435"></path><path d="M481 181L372 68L360 178Z" fill="#297ea6" stroke="#297ea6"></path><path d="M372 68L309 181L360 178Z" fill="#081a28" stroke="#081a28"></path><path d="M360 178L298 291L411 291Z" fill="#246688" stroke="#246688"></path><path d="M309 181L298 291L360 178Z" fill="#19435d" stroke="#19435d"></path><path d="M411 291L418 427L493 301Z" fill="#112e42" stroke="#112e42"></path><path d="M493 301L632 239L481 181Z" fill="#081a28" stroke="#081a28"></path><path d="M493 301L629 301L632 239Z" fill="#081a28" stroke="#081a28"></path><path d="M303 400L418 427L411 291Z" fill="#205a7a" stroke="#205a7a"></path><path d="M493 301L628 430L629 301Z" fill="#15384f" stroke="#15384f"></path><path d="M418 427L495 435L493 301Z" fill="#0c2435" stroke="#0c2435"></path><path d="M533 128L372 68L481 181Z" fill="#112e42" stroke="#112e42"></path><path d="M632 239L580 81L533 128Z" fill="#00101c" stroke="#00101c"></path><path d="M533 128L538 0L372 68Z" fill="#277297" stroke="#277297"></path><path d="M298 291L303 400L411 291Z" fill="#1d4e6b" stroke="#1d4e6b"></path><path d="M303 400L402 461L418 427Z" fill="#0c2435" stroke="#0c2435"></path><path d="M418 427L402 461L495 435Z" fill="#297ea6" stroke="#297ea6"></path><path d="M629 301L690 260L632 239Z" fill="#0c2435" stroke="#0c2435"></path><path d="M632 239L709 136L580 81Z" fill="#246688" stroke="#246688"></path><path d="M686 376L690 260L629 301Z" fill="#15384f" stroke="#15384f"></path><path d="M690 260L699 235L632 239Z" fill="#112e42" stroke="#112e42"></path><path d="M200 224L228 318L298 291Z" fill="#0c2435" stroke="#0c2435"></path><path d="M298 291L228 318L303 400Z" fill="#00101c" stroke="#00101c"></path><path d="M200 224L298 291L309 181Z" fill="#1d4e6b" stroke="#1d4e6b"></path><path d="M529 500L628 430L495 435Z" fill="#205a7a" stroke="#205a7a"></path><path d="M495 435L628 430L493 301Z" fill="#081a28" stroke="#081a28"></path><path d="M372 68L266 75L309 181Z" fill="#112e42" stroke="#112e42"></path><path d="M591 0L538 0L580 81Z" fill="#081a28" stroke="#081a28"></path><path d="M580 81L538 0L533 128Z" fill="#15384f" stroke="#15384f"></path><path d="M372 68L330 0L266 75Z" fill="#1d4e6b" stroke="#1d4e6b"></path><path d="M208 114L200 224L309 181Z" fill="#00101c" stroke="#00101c"></path><path d="M538 0L360 0L372 68Z" fill="#1d4e6b" stroke="#1d4e6b"></path><path d="M628 430L686 376L629 301Z" fill="#19435d" stroke="#19435d"></path><path d="M690 260L793 304L699 235Z" fill="#277297" stroke="#277297"></path><path d="M402 461L529 500L495 435Z" fill="#112e42" stroke="#112e42"></path><path d="M819 203L709 136L699 235Z" fill="#297ea6" stroke="#297ea6"></path><path d="M699 235L709 136L632 239Z" fill="#081a28" stroke="#081a28"></path><path d="M360 0L330 0L372 68Z" fill="#112e42" stroke="#112e42"></path><path d="M666 0L591 0L580 81Z" fill="#081a28" stroke="#081a28"></path><path d="M303 400L311 481L402 461Z" fill="#112e42" stroke="#112e42"></path><path d="M360 600L535 600L529 500Z" fill="#246688" stroke="#246688"></path><path d="M192 404L311 481L303 400Z" fill="#297ea6" stroke="#297ea6"></path><path d="M266 75L208 114L309 181Z" fill="#00101c" stroke="#00101c"></path><path d="M233 0L208 114L266 75Z" fill="#297ea6" stroke="#297ea6"></path><path d="M535 600L565 529L529 500Z" fill="#246688" stroke="#246688"></path><path d="M529 500L565 529L628 430Z" fill="#1d4e6b" stroke="#1d4e6b"></path><path d="M628 430L738 497L686 376Z" fill="#0c2435" stroke="#0c2435"></path><path d="M128 373L192 404L228 318Z" fill="#00101c" stroke="#00101c"></path><path d="M228 318L192 404L303 400Z" fill="#00101c" stroke="#00101c"></path><path d="M709 136L666 0L580 81Z" fill="#15384f" stroke="#15384f"></path><path d="M200 224L134 298L228 318Z" fill="#081a28" stroke="#081a28"></path><path d="M82 235L134 298L200 224Z" fill="#00101c" stroke="#00101c"></path><path d="M330 0L233 0L266 75Z" fill="#081a28" stroke="#081a28"></path><path d="M106 88L82 235L200 224Z" fill="#277297" stroke="#277297"></path><path d="M836 401L793 304L686 376Z" fill="#297ea6" stroke="#297ea6"></path><path d="M686 376L793 304L690 260Z" fill="#246688" stroke="#246688"></path><path d="M709 136L771 75L666 0Z" fill="#19435d" stroke="#19435d"></path><path d="M134 298L128 373L228 318Z" fill="#112e42" stroke="#112e42"></path><path d="M192 404L167 471L311 481Z" fill="#15384f" stroke="#15384f"></path><path d="M819 203L771 75L709 136Z" fill="#0c2435" stroke="#0c2435"></path><path d="M793 304L819 203L699 235Z" fill="#297ea6" stroke="#297ea6"></path><path d="M360 600L529 500L402 461Z" fill="#00101c" stroke="#00101c"></path><path d="M565 529L738 497L628 430Z" fill="#246688" stroke="#246688"></path><path d="M128 373L167 471L192 404Z" fill="#15384f" stroke="#15384f"></path><path d="M311 481L360 600L402 461Z" fill="#1d4e6b" stroke="#1d4e6b"></path><path d="M303 600L360 600L311 481Z" fill="#081a28" stroke="#081a28"></path><path d="M535 600L568 600L565 529Z" fill="#15384f" stroke="#15384f"></path><path d="M106 88L200 224L208 114Z" fill="#15384f" stroke="#15384f"></path><path d="M134 298L0 361L128 373Z" fill="#246688" stroke="#246688"></path><path d="M700 600L738 497L565 529Z" fill="#277297" stroke="#277297"></path><path d="M127 0L106 88L208 114Z" fill="#277297" stroke="#277297"></path><path d="M203 600L303 600L311 481Z" fill="#15384f" stroke="#15384f"></path><path d="M700 600L766 510L738 497Z" fill="#0c2435" stroke="#0c2435"></path><path d="M738 497L836 401L686 376Z" fill="#1d4e6b" stroke="#1d4e6b"></path><path d="M793 304L900 235L819 203Z" fill="#081a28" stroke="#081a28"></path><path d="M766 510L836 401L738 497Z" fill="#205a7a" stroke="#205a7a"></path><path d="M233 0L127 0L208 114Z" fill="#15384f" stroke="#15384f"></path><path d="M568 600L700 600L565 529Z" fill="#205a7a" stroke="#205a7a"></path><path d="M167 471L203 600L311 481Z" fill="#277297" stroke="#277297"></path><path d="M74 513L203 600L167 471Z" fill="#297ea6" stroke="#297ea6"></path><path d="M74 513L167 471L128 373Z" fill="#246688" stroke="#246688"></path><path d="M900 306L900 235L793 304Z" fill="#19435d" stroke="#19435d"></path><path d="M900 132L838 0L771 75Z" fill="#297ea6" stroke="#297ea6"></path><path d="M836 401L900 306L793 304Z" fill="#297ea6" stroke="#297ea6"></path><path d="M900 436L900 306L836 401Z" fill="#15384f" stroke="#15384f"></path><path d="M900 132L771 75L819 203Z" fill="#112e42" stroke="#112e42"></path><path d="M771 75L838 0L666 0Z" fill="#205a7a" stroke="#205a7a"></path><path d="M900 235L900 132L819 203Z" fill="#112e42" stroke="#112e42"></path><path d="M0 206L0 261L82 235Z" fill="#297ea6" stroke="#297ea6"></path><path d="M82 235L0 261L134 298Z" fill="#277297" stroke="#277297"></path><path d="M0 206L82 235L0 128Z" fill="#277297" stroke="#277297"></path><path d="M0 128L82 235L106 88Z" fill="#081a28" stroke="#081a28"></path><path d="M0 465L74 513L128 373Z" fill="#246688" stroke="#246688"></path><path d="M0 0L0 128L106 88Z" fill="#277297" stroke="#277297"></path><path d="M0 261L0 361L134 298Z" fill="#15384f" stroke="#15384f"></path><path d="M900 495L836 401L766 510Z" fill="#277297" stroke="#277297"></path><path d="M900 495L900 436L836 401Z" fill="#112e42" stroke="#112e42"></path><path d="M900 132L900 0L838 0Z" fill="#081a28" stroke="#081a28"></path><path d="M700 600L820 600L766 510Z" fill="#1d4e6b" stroke="#1d4e6b"></path><path d="M820 600L900 495L766 510Z" fill="#19435d" stroke="#19435d"></path><path d="M0 361L0 465L128 373Z" fill="#112e42" stroke="#112e42"></path><path d="M74 513L82 600L203 600Z" fill="#19435d" stroke="#19435d"></path><path d="M0 600L82 600L74 513Z" fill="#15384f" stroke="#15384f"></path><path d="M127 0L0 0L106 88Z" fill="#081a28" stroke="#081a28"></path><path d="M820 600L900 600L900 495Z" fill="#1d4e6b" stroke="#1d4e6b"></path><path d="M0 465L0 600L74 513Z" fill="#00101c" stroke="#00101c"></path></g></svg>